<svg xmlns="http://www.w3.org/2000/svg" xml:space="preserve" id="dragonfruit" x="0" y="0" style="enable-background:new 0 0 1000 1000" version="1.1" viewBox="0 0 1000 1000">
  <g id="XMLID_35_">
    <path id="XMLID_194_" d="M832.1,426.1c-30.5-129.9-126.4-241.5-279-254.6s-239.7,36.4-296.8,103.8
		c-118.9,140.4-73,302.6-28.5,404.6S478.1,883,643.8,800.2S862.7,556,832.1,426.1z M799.9,532.4c-14,120.3-103.8,220.6-215.4,252
		c-111.6,31.4-221.5-12.2-280.8-77.6s-111.1-181.5-69.5-317.1c23.7-77.3,81.4-145.3,176.1-173.8c94.8-28.5,201.1-8.1,276.7,45.3
		C762.7,314.7,813.8,412.1,799.9,532.4z" style="fill:#e93970"></path>
    <path id="XMLID_2_" d="M687.1,261.2c-75.6-53.5-182-73.8-276.7-45.3c-94.8,28.5-152.4,96.6-176.1,173.8
		c-41.7,135.6,10.2,251.7,69.5,317.1s169.2,109,280.8,77.6c111.6-31.4,201.4-131.7,215.4-252S762.7,314.7,687.1,261.2z" style="fill:#e9eae6"></path>
    <g id="XMLID_36_">
      <g id="XMLID_160_">
        <path id="XMLID_32_" d="M314.4,442.4c0,0-19.5-1.1-46.9,17.7C240.1,478.9,288,502.4,314.4,442.4z" style="fill:#41413b"></path>
        <path id="XMLID_31_" d="M406.5,363.6c0,0-12.5-15.1-44.9-22.4C329.2,334,344.5,385.1,406.5,363.6z" style="fill:#41413b"></path>
        <path id="XMLID_30_" d="M359.4,555.2c0,0-17.5-8.8-50.1-2.6C276.7,558.9,311.1,599.7,359.4,555.2z" style="fill:#41413b"></path>
        <path id="XMLID_29_" d="M400.1,638.7c0,0-19.5-1.9-47.6,15.7C324.4,672.1,371.2,697.6,400.1,638.7z" style="fill:#41413b"></path>
        <path id="XMLID_28_" d="M467.9,697.8c0,0-19.5-1.9-47.6,15.7S439,756.7,467.9,697.8z" style="fill:#41413b"></path>
        <path id="XMLID_27_" d="M455.8,573.3c0,0-17.2-9.3-50-3.8S406.4,616.5,455.8,573.3z" style="fill:#41413b"></path>
        <path id="XMLID_26_" d="M406,485.6c0,0-17.2-9.3-50-3.8S356.6,528.8,406,485.6z" style="fill:#41413b"></path>
        <path id="XMLID_25_" d="M453.8,407.3c0,0-17.2-9.3-50-3.8S404.5,450.5,453.8,407.3z" style="fill:#41413b"></path>
        <path id="XMLID_24_" d="M415.7,282.6c0,0-14-13.6-47-17.4S356.3,310.5,415.7,282.6z" style="fill:#41413b"></path>
        <path id="XMLID_23_" d="M336,392.8c0,0-14-13.6-47-17.4S276.6,420.8,336,392.8z" style="fill:#41413b"></path>
      </g>
      <g id="XMLID_129_">
        <path id="XMLID_22_" d="M693.7,447.3c0,0,19.5-1.1,46.9,17.7C767.9,483.9,720.1,507.4,693.7,447.3z" style="fill:#41413b"></path>
        <path id="XMLID_21_" d="M601.6,368.6c0,0,12.5-15.1,44.9-22.4S663.6,390,601.6,368.6z" style="fill:#41413b"></path>
        <path id="XMLID_20_" d="M648.7,560.1c0,0,17.5-8.8,50.1-2.6C731.4,563.9,697,604.6,648.7,560.1z" style="fill:#41413b"></path>
        <path id="XMLID_19_" d="M607.9,643.6c0,0,19.5-1.9,47.6,15.7C683.7,677,636.9,702.5,607.9,643.6z" style="fill:#41413b"></path>
        <path id="XMLID_18_" d="M540.2,702.7c0,0,19.5-1.9,47.6,15.7C615.9,736.1,569.1,761.6,540.2,702.7z" style="fill:#41413b"></path>
        <path id="XMLID_17_" d="M552.2,578.2c0,0,17.2-9.3,50-3.8S601.6,621.4,552.2,578.2z" style="fill:#41413b"></path>
        <path id="XMLID_16_" d="M602.1,490.6c0,0,17.2-9.3,50-3.8S651.4,533.7,602.1,490.6z" style="fill:#41413b"></path>
        <path id="XMLID_15_" d="M554.2,412.2c0,0,17.2-9.3,50-3.8S603.6,455.4,554.2,412.2z" style="fill:#41413b"></path>
        <path id="XMLID_14_" d="M592.4,287.5c0,0,14-13.6,47-17.4S651.8,315.5,592.4,287.5z" style="fill:#41413b"></path>
        <path id="XMLID_13_" d="M672.1,397.8c0,0,14-13.6,47-17.4S731.5,425.7,672.1,397.8z" style="fill:#41413b"></path>
      </g>
      <path id="XMLID_12_" d="M526.1,358.3c0,0,0.9-19.5,22.5-44.8C570.1,288.2,588.5,338.2,526.1,358.3z" style="fill:#41413b"></path>
      <path id="XMLID_11_" d="M482.4,361.2c0,0-17-9.7-29.7-40.4C439.9,290.2,492.8,296.4,482.4,361.2z" style="fill:#41413b"></path>
      <path id="XMLID_10_" d="M509.3,282.2c0,0-17-9.7-29.7-40.4S519.8,217.4,509.3,282.2z" style="fill:#41413b"></path>
      <path id="XMLID_9_" d="M461.5,507.9c0,0-17-9.7-29.7-40.4C419,436.9,471.9,443.2,461.5,507.9z" style="fill:#41413b"></path>
      <path id="XMLID_8_" d="M542.8,514.9c0,0-0.9-19.5,18.1-46.8C579.9,440.9,603,489,542.8,514.9z" style="fill:#41413b"></path>
      <path id="XMLID_7_" d="M504.3,446.7c0,0-9.4-17.2-4.1-50S547.3,397.1,504.3,446.7z" style="fill:#41413b"></path>
      <path id="XMLID_5_" d="M499,553.6c0,0-9.4-17.2-4.1-50S541.9,504,499,553.6z" style="fill:#41413b"></path>
      <path id="XMLID_4_" d="M484.4,653c0,0-19.5-1.6-44-24.1S466.5,589.8,484.4,653z" style="fill:#41413b"></path>
      <path id="XMLID_3_" d="M537.7,667.4c0,0,3.6-19.2,28.3-41.4C590.7,603.9,602.3,655.9,537.7,667.4z" style="fill:#41413b"></path>
      <path id="XMLID_1_" d="M500.1,740.7c0,0-8.9-17.5-2.7-50.1C503.7,658,544.5,692.3,500.1,740.7z" style="fill:#41413b"></path>
    </g>
  </g>
</svg>
